<svg width="944" height="756" viewBox="0 0 944 756" fill="none" xmlns="http://www.w3.org/2000/svg">
<path d="M11.7 715V648.96L10.4 638.56H70.72C77.74 638.56 83.1133 639.427 86.84 641.16C90.6533 642.893 93.2967 645.493 94.77 648.96C96.2433 652.34 96.98 656.587 96.98 661.7V691.73C96.98 696.93 96.2433 701.263 94.77 704.73C93.3833 708.11 90.7833 710.667 86.97 712.4C83.2433 714.133 77.8267 715 70.72 715H11.7ZM28.86 702.52H69.68C76.3533 702.52 79.7333 699.443 79.82 693.29V660.14C79.82 657.627 79.0833 655.503 77.61 653.77C76.1367 651.95 73.4933 651.04 69.68 651.04H28.86V702.52ZM115.197 715L153.287 638.56H178.897L216.857 715H196.837L189.167 698.49H142.627L134.177 715H115.197ZM147.307 685.75H184.357L166.547 650.26H165.247L147.307 685.75ZM250.801 715L250.671 650.91H216.871V638.43H301.891V650.91H267.961V715H250.801ZM301.92 715L340.01 638.56H365.62L403.58 715H383.56L375.89 698.49H329.35L320.9 715H301.92ZM334.03 685.75H371.08L353.27 650.26H351.97L334.03 685.75Z" fill="#E2B361"/>
<path d="M469.874 715V648.96L468.574 638.56H488.334L517.714 690.56L548.134 638.56H565.684V715H548.524V666.51H547.094L542.024 677.82L525.644 707.2H509.914L493.534 677.82L488.334 666.51H487.034V715H469.874ZM622.003 715C615.937 715 611.17 714.133 607.703 712.4C604.237 710.667 601.767 708.067 600.293 704.6C598.907 701.133 598.213 696.843 598.213 691.73V661.7C598.213 656.673 598.907 652.47 600.293 649.09C601.68 645.623 604.107 643.023 607.573 641.29C611.04 639.47 615.85 638.56 622.003 638.56H659.963C666.03 638.56 670.753 639.47 674.133 641.29C677.6 643.023 680.027 645.623 681.413 649.09C682.887 652.47 683.623 656.673 683.623 661.7V691.73C683.623 699.357 681.933 705.163 678.553 709.15C675.173 713.05 668.977 715 659.963 715H622.003ZM625.773 702.52H656.323C659.53 702.52 662 701.697 663.733 700.05C665.553 698.403 666.463 696.15 666.463 693.29V660.14C666.463 657.627 665.553 655.503 663.733 653.77C661.913 651.95 659.443 651.04 656.323 651.04H625.773C622.653 651.04 620.14 651.863 618.233 653.51C616.327 655.157 615.373 657.367 615.373 660.14V693.29C615.373 696.237 616.283 698.533 618.103 700.18C620.01 701.74 622.567 702.52 625.773 702.52ZM717.407 715V648.96L716.107 638.56H734.827L779.027 684.84L784.097 691.86H785.527V638.56H802.687V715H786.177L740.937 667.94L735.867 661.83H734.567V715H717.407ZM918.019 716.3C913.773 716.3 910.089 715.433 906.969 713.7C903.849 711.967 900.773 709.627 897.739 706.68C894.446 703.213 890.459 699.227 885.779 694.72C883.613 692.467 881.403 690.603 879.149 689.13C876.896 687.657 874.339 686.53 871.479 685.75C868.706 684.97 865.239 684.58 861.079 684.58H854.969V715H837.809V648.96L836.509 638.56H854.969V671.84H862.249C863.983 671.84 865.413 671.623 866.539 671.19C867.666 670.757 868.706 670.063 869.659 669.11C872.086 666.683 874.859 663.65 877.979 660.01C881.099 656.37 884.133 652.643 887.079 648.83C890.113 644.93 892.713 641.507 894.879 638.56H915.939L910.609 646.36C908.183 648.873 905.583 651.603 902.809 654.55C900.036 657.497 897.306 660.4 894.619 663.26C891.933 666.033 889.506 668.503 887.339 670.67C885.173 672.75 883.569 674.267 882.529 675.22C884.869 676 886.993 676.997 888.899 678.21C890.893 679.423 893.319 681.2 896.179 683.54C898.346 685.273 900.426 687.05 902.419 688.87C904.499 690.69 906.883 692.857 909.569 695.37C912.603 698.143 915.463 700.18 918.149 701.48C920.836 702.78 923.089 703.603 924.909 703.95C926.816 704.297 928.029 704.47 928.549 704.47L925.949 715C925.689 715.26 924.909 715.52 923.609 715.78C922.309 716.127 920.446 716.3 918.019 716.3Z" fill="#D5D5D5"/>
<path fill-rule="evenodd" clip-rule="evenodd" d="M446.958 0.975223C435.953 2.93093 415.468 10.0069 403.998 15.815C381.374 27.2687 361.19 45.568 345.869 68.5156C325.459 99.0846 316.9 148.652 326.397 181.291C330.731 196.184 317.888 196.646 326.397 187.768H353.885L353.887 158.005L353.888 128.24L359.28 112.675C362.246 104.116 367.287 92.6375 370.484 87.169C389.472 54.6875 427.244 32.3515 466.962 30.1152C492.494 28.6775 522.379 37.951 543.341 53.814C563.46 69.0409 575.584 86.2868 584.727 112.675L590.118 128.24L590.12 158.216L590.121 188.194L614.717 187.768C617.612 196.749 612.487 196.182 617.501 181.486C621.18 170.706 622.027 140.346 619.115 123.677C614.007 94.4421 601.24 68.2494 582.199 47.9353C568.022 32.812 555.876 23.7616 538.264 15.2005C514.912 3.84619 501.855 0.660063 476.325 0.082992C464.441 -0.184677 451.226 0.216828 446.958 0.975223ZM451.117 69.7964C430.341 76.514 412.721 91.1135 404.029 108.813C398.018 121.054 396.457 128.322 396.414 144.279C396.369 161.364 399.855 172.747 409.212 186.057C437.447 226.223 491.634 231.188 525.914 196.749C541.534 181.056 547.627 166.072 547.627 143.351C547.627 122.031 541.877 106.774 528.181 91.7452C519.085 81.7638 506.541 73.6085 494.643 69.936C482.628 66.2289 462.349 66.1641 451.117 69.7964ZM371.171 238.288C346.038 243.8 320.727 267.451 293.493 310.874C276.98 337.199 279.189 344.854 307.41 359.118C322.573 366.781 330.955 367.659 338.389 362.36C340.959 360.53 347.763 352.111 353.512 343.652C373.759 313.86 383.073 308.718 400.768 317.564C407.371 320.864 425.168 335.331 442.492 351.478C450.029 358.502 463.965 371.153 473.462 379.59C482.959 388.029 496.239 400.543 502.973 407.4C516.511 421.185 523.187 425.418 531.365 425.396C538.287 425.379 549.066 420.354 558.872 412.574C571.842 402.282 574.918 393.682 569.649 382.455C566.107 374.913 511.97 320.537 485.688 298.125C441.761 260.666 422.539 246.983 405.728 241.202C395.85 237.806 379.615 236.436 371.171 238.288ZM550.508 237.795C526.607 242.391 505.854 257.68 505.854 270.695C505.854 276.582 510.664 284.501 519.644 293.402C531.62 305.273 536.837 307.406 553.891 307.406C562.418 307.406 569.714 308.169 572.565 309.359C579.169 312.116 587.338 321.189 596.992 336.488C608.65 354.966 611.548 358.457 617.612 361.333C630.682 367.529 656.253 355.788 660.004 341.868C662.098 334.098 660.27 328.166 650.896 312.317C629.85 276.736 603.788 249.71 582.402 241.287C574.861 238.318 557.611 236.429 550.508 237.795ZM257.753 381.451C249.299 384.69 241.101 391.008 227.499 404.764C199.239 433.344 181.446 466.426 175.429 501.575C172.257 520.106 172.171 569.962 175.291 580.461C179.333 594.055 190.501 599.024 214.325 597.828C236.676 596.706 241.943 591.322 240.802 570.758C238.787 534.409 240.893 515.324 249.414 492.708C253.497 481.874 262.543 468.502 267.929 465.345C273.057 462.337 282.336 462.084 288.781 464.774C291.346 465.844 326.491 488.606 366.88 515.356C451.966 571.709 475.62 586.788 488.569 592.935L497.932 597.381L532.732 597.87C571.628 598.417 582.288 597.181 585.877 591.708C588.417 587.837 586.876 582.253 581.742 576.726C578.115 572.818 512.44 528.171 490.009 514.362C481.69 509.241 435.019 478.61 386.296 446.294C337.572 413.978 294.203 385.928 289.92 383.961C280.37 379.573 265.648 378.423 257.753 381.451ZM661.424 380.632C659.443 381.277 655.004 383.243 651.557 385.001C641.615 390.075 526.954 466.309 520.492 472.14C512.94 478.957 510.731 485.269 513.546 491.998C516.22 498.392 521.464 503.239 533.943 510.847C551.367 521.471 560.256 522.864 572.944 516.96C576.964 515.091 595.762 503.223 614.717 490.586C653.062 465.026 654.334 464.261 661.101 462.737C676.86 459.186 691.504 476.576 699.871 508.776C703.595 523.102 704.655 542.634 703.239 570.758C702.199 591.401 707.383 596.709 729.682 597.828C753.505 599.024 764.673 594.055 768.715 580.461C771.784 570.139 771.755 519.909 768.669 502.236C761.67 462.142 739.879 424.298 707.261 395.596C694.027 383.949 686.338 380.256 674.388 379.81C669.238 379.619 663.405 379.989 661.424 380.632Z" fill="#D5D5D5"/>
<circle cx="471.5" cy="141.5" r="78.5" fill="#E2B361"/>
<rect x="318" y="188" width="10" height="7" fill="#1E1E1E"/>
</svg>
