<svg xmlns="http://www.w3.org/2000/svg" viewBox="0 0 24.00 24.00" fill="none" stroke="currentColor">
  <g stroke-width="0"></g>
  <g stroke-linecap="round" stroke-linejoin="round" stroke="currentColor" stroke-width="0.048"></g>
  <g>
    <path d="M21 9.00001L21 3.00001M21 3.00001H15M21 3.00001L12 12M10 3H7.8C6.11984 3 5.27976 3 4.63803 3.32698C4.07354 3.6146 3.6146 4.07354 3.32698 4.63803C3 5.27976 3 6.11984 3 7.8V16.2C3 17.8802 3 18.7202 3.32698 19.362C3.6146 19.9265 4.07354 20.3854 4.63803 20.673C5.27976 21 6.11984 21 7.8 21H16.2C17.8802 21 18.7202 21 19.362 20.673C19.9265 20.3854 20.3854 19.9265 20.673 19.362C21 18.7202 21 17.8802 21 16.2V14" stroke="currentColor" stroke-width="1.8" stroke-linecap="round" stroke-linejoin="round"></path>
  </g>
</svg>
